<svg width="42" height="42" viewBox="0 0 42 42" fill="none" xmlns="http://www.w3.org/2000/svg">
<g id="Icon/arrow">
<path id="Union" fill-rule="evenodd" clip-rule="evenodd" d="M13.4797 6.36408C12.8523 5.82306 11.9051 5.89305 11.3641 6.52041C10.8231 7.14778 10.8931 8.09494 11.5204 8.63597L26.5546 21.6011L11.5548 33.7757C10.9115 34.2978 10.8133 35.2425 11.3354 35.8857C11.8575 36.5289 12.8021 36.6271 13.4453 36.105L29.8144 22.8191C29.8566 22.7862 29.8972 22.7507 29.9363 22.7128C30.0635 22.5897 30.1646 22.4485 30.239 22.2965C30.3382 22.0945 30.3888 21.8759 30.3918 21.6574C30.395 21.4396 30.351 21.2202 30.2581 21.0159C30.1884 20.8621 30.0918 20.7182 29.9687 20.5916C29.9306 20.5522 29.8906 20.5152 29.8492 20.4808L13.4797 6.36408Z" fill="#B3B3B3"/>
</g>
</svg>
