<svg width="42" height="42" viewBox="0 0 42 42" fill="none" xmlns="http://www.w3.org/2000/svg">
<g id="Icon/close">
<path id="Union" fill-rule="evenodd" clip-rule="evenodd" d="M34.0084 9.56066C34.5942 8.97487 34.5942 8.02513 34.0084 7.43934C33.4226 6.85355 32.4729 6.85355 31.8871 7.43934L20.7239 18.6026L9.56066 7.43934C8.97487 6.85355 8.02513 6.85355 7.43934 7.43934C6.85355 8.02513 6.85355 8.97487 7.43934 9.56066L18.6026 20.7239L7.43934 31.8871C6.85355 32.4729 6.85355 33.4226 7.43934 34.0084C8.02513 34.5942 8.97487 34.5942 9.56066 34.0084L20.7239 22.8452L31.8871 34.0084C32.4729 34.5942 33.4226 34.5942 34.0084 34.0084C34.5942 33.4226 34.5942 32.4729 34.0084 31.8871L22.8452 20.7239L34.0084 9.56066Z" fill="#B3B3B3"/>
</g>
</svg>
