<svg width="42" height="42" viewBox="0 0 42 42" fill="none" xmlns="http://www.w3.org/2000/svg">
<g id="Icon/setting">
<g id="Setting">
<g id="Group 3">
<mask id="mask0_25_5309" style="mask-type:luminance" maskUnits="userSpaceOnUse" x="4" y="3" width="34" height="37">
<path id="Clip 2" fill-rule="evenodd" clip-rule="evenodd" d="M4 39.2617L37.7485 39.2617L37.7485 2.99996L4 2.99996L4 39.2617Z" fill="white"/>
</mask>
<g mask="url(#mask0_25_5309)">
<path id="Fill 1" fill-rule="evenodd" clip-rule="evenodd" d="M13.1041 12.2417C13.5048 12.2417 13.9056 12.191 14.2976 12.086C15.4806 11.7675 16.5078 10.9765 17.1168 9.91421C17.5123 9.24746 17.7311 8.46871 17.7381 7.67421C17.7381 6.53671 18.6516 5.62496 19.7751 5.62496L21.9678 5.62496C23.0861 5.62496 23.9996 6.53147 24.0048 7.64972C23.9978 8.88522 24.4808 10.0595 25.3646 10.9432C26.2361 11.8147 27.4541 12.338 28.6721 12.303C29.4701 12.2837 30.2383 12.0685 30.9156 11.6835C31.8903 11.1252 33.1346 11.4577 33.6981 12.4202L34.8601 14.3575C35.1191 14.8037 35.1943 15.3637 35.0561 15.88C34.9196 16.3962 34.5766 16.8442 34.1146 17.1085C33.0331 17.7315 32.2613 18.736 31.9411 19.94C31.6243 21.1212 31.7976 22.411 32.4153 23.4732C32.8178 24.1732 33.4076 24.763 34.1146 25.169C35.0631 25.7237 35.3956 26.9645 34.8443 27.9305C34.8216 27.969 34.8006 28.0092 34.7831 28.0512L33.7576 29.8292C33.1993 30.8005 31.9568 31.1347 30.9821 30.58C29.9286 29.957 28.6756 29.7785 27.4716 30.0952C26.2693 30.4067 25.2613 31.168 24.6331 32.2425C24.2306 32.9145 24.0118 33.6967 24.0048 34.493C24.0206 35.0915 23.8106 35.6287 23.4291 36.0225C23.0493 36.4145 22.5156 36.6367 21.9678 36.6367L19.7751 36.6367C19.2326 36.6367 18.7251 36.425 18.3418 36.0435C17.9603 35.6602 17.7521 35.151 17.7556 34.6085C17.7188 32.05 15.6276 29.9902 13.0953 29.9902C12.2833 29.999 11.5011 30.2177 10.8221 30.6237C9.86831 31.1662 8.62231 30.832 8.06406 29.8607L6.87931 27.913C6.33681 26.9715 6.66931 25.7272 7.63531 25.1655C9.06856 24.336 9.96281 22.789 9.96281 21.13C9.96281 19.471 9.06856 17.9257 7.63181 17.0945C6.67106 16.538 6.33856 15.3007 6.89506 14.3382L7.99931 12.4342C8.27231 11.9425 8.71856 11.5872 9.23481 11.442C9.74931 11.2985 10.3163 11.3597 10.7888 11.6222C11.4836 12.03 12.2921 12.2417 13.1041 12.2417ZM21.9678 2.99996L19.7751 2.99996C17.2043 2.99996 15.1131 5.08946 15.1131 7.66021C15.1096 7.97696 15.0186 8.30597 14.8488 8.59122C14.5741 9.07072 14.1296 9.41371 13.6168 9.55021C13.1076 9.68671 12.5493 9.61147 12.0908 9.34547C10.9918 8.73297 9.69856 8.58422 8.51556 8.91671C7.33431 9.25097 6.31406 10.063 5.71556 11.1392L4.62181 13.024C3.34256 15.243 4.10381 18.0867 6.31931 19.3677C6.94756 19.73 7.33781 20.4055 7.33781 21.13C7.33781 21.8545 6.94756 22.5317 6.31931 22.894C4.10206 24.182 3.34256 27.0327 4.62006 29.2517L5.80656 31.1995C7.06831 33.394 9.92081 34.1675 12.1451 32.89C12.4478 32.7097 12.7768 32.6187 13.1111 32.6152C14.2013 32.6152 15.1131 33.5147 15.1306 34.6207C15.1236 35.8405 15.6048 37.0112 16.4816 37.895C17.3618 38.777 18.5308 39.2617 19.7751 39.2617L21.9678 39.2617C23.2208 39.2617 24.4388 38.7472 25.3121 37.853C26.1836 36.9535 26.6648 35.7197 26.6281 34.4685C26.6316 34.1867 26.7243 33.8612 26.8923 33.576C27.1706 33.1035 27.6098 32.771 28.1313 32.6345C28.6528 32.505 29.1988 32.575 29.6626 32.8497C31.9026 34.129 34.7533 33.3625 36.0326 31.14L37.1228 29.2517C37.1508 29.201 37.1753 29.152 37.1963 29.1012C38.3548 26.912 37.5813 24.1557 35.4288 22.8975C35.1156 22.7172 34.8618 22.4652 34.6868 22.1607C34.4156 21.69 34.3403 21.13 34.4768 20.6155C34.6168 20.0905 34.9511 19.6547 35.4218 19.3852C36.4841 18.7745 37.2768 17.7455 37.5936 16.5572C37.9103 15.3707 37.7371 14.0827 37.1193 13.0205L35.9573 11.085C34.6781 8.88697 31.8273 8.12572 29.6101 9.40672C29.3143 9.57647 28.9731 9.66922 28.6336 9.67797L28.6231 9.67797C28.1173 9.67797 27.5976 9.46272 27.2196 9.08647C26.8363 8.70322 26.6263 8.19222 26.6298 7.64972C26.6176 5.07897 24.5263 2.99996 21.9678 2.99996Z" fill="#B3B3B3"/>
</g>
</g>
<path id="Fill 4" fill-rule="evenodd" clip-rule="evenodd" d="M20.8791 24.4316C19.0591 24.4316 17.5786 22.9494 17.5786 21.1294C17.5786 19.3094 19.0591 17.8306 20.8791 17.8306C22.6991 17.8306 24.1796 19.3094 24.1796 21.1294C24.1796 22.9494 22.6991 24.4316 20.8791 24.4316ZM20.8791 15.2056C17.6119 15.2056 14.9536 17.8621 14.9536 21.1294C14.9536 24.3966 17.6119 27.0566 20.8791 27.0566C24.1464 27.0566 26.8046 24.3966 26.8046 21.1294C26.8046 17.8621 24.1464 15.2056 20.8791 15.2056Z" fill="#B3B3B3"/>
</g>
</g>
</svg>
